<svg xmlns="http://www.w3.org/2000/svg" xmlns:xlink="http://www.w3.org/1999/xlink" width="500" zoomAndPan="magnify" viewBox="0 0 375 374.999991" height="500" preserveAspectRatio="xMidYMid meet" version="1.0"><defs><clipPath id="d97eabf8cb"><path d="M 258.632812 224 L 374.515625 224 L 374.515625 249.632812 L 258.632812 249.632812 Z M 258.632812 224 " clip-rule="nonzero"/></clipPath><clipPath id="7edee38806"><path d="M 191.378906 213.550781 L 328 213.550781 L 328 253.691406 L 191.378906 253.691406 Z M 191.378906 213.550781 " clip-rule="nonzero"/></clipPath><clipPath id="ce57cf081c"><path d="M 224 209.238281 L 340 209.238281 L 340 233.84375 L 224 233.84375 Z M 224 209.238281 " clip-rule="nonzero"/></clipPath></defs><g clip-path="url(#d97eabf8cb)"><path fill="#f33855" d="M 260.320312 234.910156 C 277.324219 242.984375 295.910156 247.289062 314.777344 246.1875 C 336.136719 244.9375 355.542969 236.917969 372.5625 224.113281 L 374.46875 226.65625 C 356.941406 239.835938 336.949219 248.074219 314.960938 249.359375 C 295.554688 250.492188 276.445312 246.089844 258.957031 237.777344 Z M 260.320312 234.910156 " fill-opacity="1" fill-rule="evenodd"/></g><g clip-path="url(#7edee38806)"><path fill="#f33855" d="M 327.898438 215.929688 C 289.304688 260.085938 242.949219 260.742188 191.378906 240.71875 L 192.523438 237.757812 C 242.832031 257.289062 287.832031 256.957031 325.511719 213.839844 Z M 327.898438 215.929688 " fill-opacity="1" fill-rule="evenodd"/></g><path fill="#f33855" d="M 222.472656 221.890625 C 227.691406 226.265625 233.128906 230.390625 238.769531 234.214844 C 262.371094 250.238281 291.5625 262.371094 320.582031 260.15625 C 331.234375 259.347656 341.476562 256.605469 351.0625 251.878906 L 352.464844 254.726562 C 342.515625 259.632812 331.875 262.476562 320.816406 263.324219 C 291.054688 265.589844 261.199219 253.28125 236.984375 236.84375 C 231.261719 232.960938 225.734375 228.769531 220.4375 224.324219 Z M 222.472656 221.890625 " fill-opacity="1" fill-rule="evenodd"/><path fill="#f33855" d="M 236.570312 258.867188 C 267.578125 263.515625 304.703125 264.058594 331.296875 244.816406 C 343 236.355469 351.347656 225.027344 357.136719 211.871094 L 360.039062 213.148438 C 337.511719 264.367188 285.726562 269.445312 236.105469 262.011719 Z M 236.570312 258.867188 " fill-opacity="1" fill-rule="evenodd"/><g clip-path="url(#ce57cf081c)"><path fill="#f33855" d="M 226.015625 209.253906 C 241.371094 220.148438 258.929688 227.601562 277.707031 229.777344 C 298.964844 232.242188 319.453125 227.703125 338.433594 218.03125 L 339.875 220.863281 C 320.335938 230.820312 299.222656 235.46875 277.339844 232.933594 C 258.03125 230.691406 239.96875 223.050781 224.175781 211.84375 Z M 226.015625 209.253906 " fill-opacity="1" fill-rule="evenodd"/></g><path fill="#2a2b2b" d="M 29.671875 203.101562 L 29.671875 164.722656 L 14.214844 164.722656 L 14.214844 154.351562 L 56.1875 154.351562 L 56.1875 164.722656 L 40.738281 164.722656 L 40.738281 203.101562 Z M 29.671875 203.101562 " fill-opacity="1" fill-rule="nonzero"/><path fill="#2a2b2b" d="M 78.730469 204.074219 C 74.832031 204.074219 71.386719 203.265625 68.390625 201.644531 C 65.402344 200.019531 63.070312 197.753906 61.398438 194.851562 C 59.726562 191.945312 58.890625 188.59375 58.890625 184.785156 C 58.890625 180.976562 59.738281 177.632812 61.433594 174.757812 C 63.128906 171.878906 65.472656 169.625 68.460938 168 C 71.457031 166.375 74.925781 165.5625 78.871094 165.5625 C 83.042969 165.5625 86.648438 166.492188 89.6875 168.351562 C 92.730469 170.210938 95.050781 172.808594 96.652344 176.152344 C 98.253906 179.496094 98.9375 183.394531 98.710938 187.851562 L 69.40625 187.851562 C 69.914062 190.359375 71.027344 192.269531 72.746094 193.597656 C 74.460938 194.921875 76.527344 195.582031 78.941406 195.582031 C 80.703125 195.582031 82.3125 195.25 83.773438 194.574219 C 85.238281 193.898438 86.410156 192.957031 87.292969 191.75 L 98.011719 191.75 C 96.433594 195.601562 93.949219 198.621094 90.5625 200.804688 C 87.175781 202.988281 83.230469 204.074219 78.730469 204.074219 Z M 69.476562 181.164062 L 88.476562 181.164062 C 87.871094 178.933594 86.746094 177.179688 85.097656 175.90625 C 83.453125 174.628906 81.402344 173.992188 78.941406 173.992188 C 76.621094 173.992188 74.613281 174.628906 72.921875 175.90625 C 71.226562 177.179688 70.078125 178.933594 69.476562 181.164062 Z M 69.476562 181.164062 " fill-opacity="1" fill-rule="nonzero"/><path fill="#2a2b2b" d="M 104.542969 203.101562 L 104.542969 166.535156 L 112.410156 166.535156 L 113.804688 171.410156 C 115.011719 169.695312 116.496094 168.457031 118.257812 167.691406 C 120.019531 166.921875 122.25 166.535156 124.941406 166.535156 L 128.90625 166.535156 L 128.90625 176.148438 L 124.871094 176.148438 C 121.855469 176.148438 119.476562 176.960938 117.734375 178.585938 C 115.992188 180.210938 115.121094 182.996094 115.121094 186.945312 L 115.121094 203.101562 Z M 104.542969 203.101562 " fill-opacity="1" fill-rule="nonzero"/><path fill="#2a2b2b" d="M 134.46875 203.101562 L 134.46875 166.535156 L 142.335938 166.535156 L 143.375 170.296875 C 144.722656 168.71875 146.359375 167.535156 148.285156 166.746094 C 150.210938 165.957031 152.332031 165.5625 154.652344 165.5625 C 160.035156 165.5625 164.050781 167.558594 166.695312 171.550781 C 168.175781 169.648438 170.042969 168.175781 172.292969 167.132812 C 174.546875 166.085938 177.0625 165.5625 179.851562 165.5625 C 184.535156 165.5625 188.257812 167.015625 191.019531 169.917969 C 193.78125 172.816406 195.160156 176.773438 195.160156 181.792969 L 195.160156 203.101562 L 184.582031 203.101562 L 184.582031 183.046875 C 184.582031 180.445312 183.941406 178.386719 182.667969 176.878906 C 181.386719 175.371094 179.660156 174.617188 177.484375 174.617188 C 175.210938 174.617188 173.402344 175.40625 172.054688 176.984375 C 170.703125 178.5625 170.03125 180.675781 170.03125 183.320312 L 170.03125 203.101562 L 159.59375 203.101562 L 159.59375 183.046875 C 159.59375 180.445312 158.957031 178.386719 157.679688 176.878906 C 156.402344 175.371094 154.675781 174.617188 152.496094 174.617188 C 150.222656 174.617188 148.414062 175.40625 147.066406 176.984375 C 145.71875 178.5625 145.046875 180.675781 145.046875 183.320312 L 145.046875 203.101562 Z M 134.46875 203.101562 " fill-opacity="1" fill-rule="nonzero"/><path fill="#2a2b2b" d="M 203.5 203.101562 L 203.5 154.351562 L 212.894531 154.351562 L 234.402344 184.019531 L 234.402344 154.351562 L 245.402344 154.351562 L 245.402344 203.101562 L 236.007812 203.101562 L 214.5 173.222656 L 214.5 203.101562 Z M 203.5 203.101562 " fill-opacity="1" fill-rule="nonzero"/><path fill="#2a2b2b" d="M 271.699219 204.074219 C 267.800781 204.074219 264.355469 203.265625 261.363281 201.644531 C 258.371094 200.019531 256.039062 197.753906 254.367188 194.851562 C 252.695312 191.945312 251.863281 188.59375 251.863281 184.785156 C 251.863281 180.976562 252.707031 177.632812 254.40625 174.757812 C 256.097656 171.878906 258.441406 169.625 261.433594 168 C 264.425781 166.375 267.898438 165.5625 271.839844 165.5625 C 276.015625 165.5625 279.621094 166.492188 282.660156 168.351562 C 285.703125 170.210938 288.023438 172.808594 289.625 176.152344 C 291.222656 179.496094 291.910156 183.394531 291.679688 187.851562 L 262.375 187.851562 C 262.882812 190.359375 263.996094 192.269531 265.714844 193.597656 C 267.433594 194.921875 269.5 195.582031 271.910156 195.582031 C 273.671875 195.582031 275.28125 195.25 276.742188 194.574219 C 278.207031 193.898438 279.378906 192.957031 280.265625 191.75 L 290.984375 191.75 C 289.40625 195.601562 286.921875 198.621094 283.53125 200.804688 C 280.144531 202.988281 276.203125 204.074219 271.699219 204.074219 Z M 262.445312 181.164062 L 281.449219 181.164062 C 280.84375 178.933594 279.714844 177.179688 278.066406 175.90625 C 276.421875 174.628906 274.371094 173.992188 271.910156 173.992188 C 269.589844 173.992188 267.585938 174.628906 265.890625 175.90625 C 264.195312 177.179688 263.046875 178.933594 262.445312 181.164062 Z M 262.445312 181.164062 " fill-opacity="1" fill-rule="nonzero"/><path fill="#2a2b2b" d="M 311.570312 204.074219 C 308.234375 204.074219 305.320312 203.542969 302.839844 202.476562 C 300.355469 201.410156 298.425781 199.925781 297.058594 198.023438 C 295.691406 196.117188 295.007812 193.886719 295.007812 191.332031 L 305.382812 191.332031 C 305.425781 192.820312 306.007812 194.003906 307.121094 194.886719 C 308.234375 195.769531 309.765625 196.210938 311.710938 196.210938 C 313.382812 196.210938 314.679688 195.898438 315.605469 195.273438 C 316.535156 194.644531 317 193.792969 317 192.722656 C 317 191.5625 316.375 190.597656 315.121094 189.832031 C 313.871094 189.066406 311.832031 188.453125 309 187.988281 C 304.363281 187.152344 300.953125 185.804688 298.769531 183.949219 C 296.589844 182.09375 295.5 179.65625 295.5 176.632812 C 295.5 173.058594 296.832031 170.320312 299.5 168.417969 C 302.167969 166.511719 305.960938 165.5625 310.882812 165.5625 C 315.75 165.5625 319.566406 166.609375 322.324219 168.699219 C 325.085938 170.789062 326.582031 173.761719 326.820312 177.613281 L 316.726562 177.613281 C 316.632812 176.21875 316.0625 175.136719 315.015625 174.371094 C 313.972656 173.605469 312.570312 173.222656 310.8125 173.222656 C 309.234375 173.222656 307.992188 173.527344 307.085938 174.132812 C 306.179688 174.734375 305.726562 175.566406 305.726562 176.632812 C 305.726562 177.753906 306.316406 178.625 307.5 179.246094 C 308.683594 179.875 310.828125 180.511719 313.9375 181.164062 C 322.941406 182.972656 327.445312 186.851562 327.445312 192.792969 C 327.445312 196.28125 326.039062 199.03125 323.234375 201.050781 C 320.425781 203.066406 316.539062 204.074219 311.570312 204.074219 Z M 311.570312 204.074219 " fill-opacity="1" fill-rule="nonzero"/><path fill="#2a2b2b" d="M 351.105469 203.101562 C 346.460938 203.101562 342.898438 201.910156 340.414062 199.515625 C 337.9375 197.125 336.695312 193.699219 336.695312 189.242188 L 336.695312 175.175781 L 329.597656 175.175781 L 329.597656 166.535156 L 332.867188 166.535156 C 334.859375 166.535156 336.21875 166.210938 336.9375 165.5625 C 337.660156 164.914062 338.160156 163.660156 338.4375 161.796875 L 339.0625 157.0625 L 347.273438 157.0625 L 347.273438 166.535156 L 357.296875 166.535156 L 357.296875 175.175781 L 347.273438 175.175781 L 347.273438 187.640625 C 347.273438 191.820312 349.316406 193.90625 353.402344 193.90625 L 357.78125 193.90625 L 357.78125 203.101562 Z M 351.105469 203.101562 " fill-opacity="1" fill-rule="nonzero"/></svg>